#!OML:ASF F:\VICON\USERDATA\INSTALL\rory3\rory3.ASF
:FULLY-SPECIFIED
:DEGREES
38
root -1.0936858390989992 17.6327585706982 -8.167267741994454 3.8611148899410748 1.619010662694754 0.8734782742253269
lfemur -32.704944326431786 4.770749185761967 -24.974979600856326
ltibia 40.85945648887262
lfoot -3.611412007045878 -20.469197820264682
ltoes -1.9472683515423483
rfemur 3.456191980449164 3.1571006156617796 29.816865250117168
rtibia 75.83706787123734
rfoot 21.019629289688517 -10.689335488598331
rtoes 11.977292373233844
lowerback 1.0 1.4476822082287 1.7768062793802777
upperback 0.39789042146699455 2.5323333498763003 -0.32075227038567633
thorax -8.198414601153393 0.9692571388878581 -0.92861850984046
lowerneck -18.581485316044713 -6.362072913540924 -1.4587988718091416
upperneck 13.187417719003411 -8.396593036069639 3.104604760339385
head 7.3064004164979135 -3.5820945727750964 0.5416597056478055
lclavicle 1.3566236549067775e-14 -7.708344874199336e-15
lhumerus -64.21210758754299 -2.959566363632457 92.96603960444888
lradius 109.2130829893176
lwrist 33.04876890924527
lhand -27.82195565294483 -4.967001697553002
lfingers nan
lthumb -1.19945978186443 25.11166920883424
rclavicle 1.5255438760811486e-14 -7.67526181935358e-15
rhumerus -40.35063599177134 13.992965166749226 -94.4736351266668
rradius 107.06936523303973
rwrist -19.50633920669528
rhand -18.75189410966531 1.0
rfingers nan
rthumb 7.572751722115832 6.395330162253645
39
root -1.112328269316391 17.568290427917766 -7.265856470477505 3.5463022109953872 2.0720096708155205 1.3769864991566003
lfemur -32.278848773249834 4.459160819218441 -25.36706735030632
ltibia 43.93563214723957
lfoot -5.632526844128639 -20.38495250075747
ltoes 3.541924129863201
rfemur 1.763988844179261 1.5206499878633701 28.563453703088115
rtibia 80.38557770130767
rfoot 20.57628778262018 -10.143729924907674
rtoes 15.337031375768895
lowerback 1.0 1.299028456757328 1.4388772142696324
upperback 0.6446396775427781 2.2802322351483086 -0.48709405934997807
thorax -8.33177616750262 0.8694223705346777 -0.859676623369896
lowerneck -18.900350888965345 -6.320018877196906 -1.6334414125456738
upperneck 13.320871524137141 -8.39162300659909 3.325139282904328
head 7.41524402261447 -3.5329434523712386 0.6130545634081741
lclavicle 3.332903648381497e-14 -2.8437650692949427e-15
lhumerus -62.63943357312857 -3.788270450956076 93.62300813868254
lradius 109.70927108936604
lwrist 33.056339867081796
lhand -28.234410644867506 -4.949568556062934
lfingers nan
lthumb -1.608225943185258 25.08443971605218
rclavicle 3.461215702770172e-14 -3.1261966208758285e-15
rhumerus -41.516597393258465 13.416018769824984 -94.88410710530748
rradius 105.19022528789066
rwrist -20.751927399867498
rhand -18.407307137522153 1.0
rfingers nan
rthumb 7.937715155595304 8.101424868891371
40
root -1.1383855773122515 17.479520827565654 -6.2844332987758005 3.21523778068583 1.9080652094832695 2.153719691605448
lfemur -31.690093005481433 4.606083732390847 -26.084058995013407
ltibia 47.16896398962002
lfoot -8.463576435313406 -18.772635670944457
ltoes 4.807804935858103
rfemur 0.0896851967118053 0.6272946906714334 26.925682374917212
rtibia 85.07481711306255
rfoot 19.60670263577432 -10.332328298127425
rtoes 17.347222337342
lowerback 1.0 1.3642338443328814 0.5736322100474456
upperback 0.9003255417978129 2.258151699338877 -0.7408046773768638
thorax -8.621066586988317 0.8886907829499917 -0.6967825061170381
lowerneck -19.72387599097158 -6.260744982643374 -1.4897225659297615
upperneck 13.356021239603763 -8.400311148489473 3.4048359089764353
head 7.512815646922679 -3.4894280530723547 0.6150806751531497
lclavicle -8.486337277957684e-16 1.0923458132026435e-14
lhumerus -60.87776458947792 -4.703354734305631 94.12596638762989
lradius 110.12678315789483
lwrist 33.157132663906346
lhand -28.455066750563493 -4.823840407856704
lfingers nan
lthumb -1.8279429760742323 25.207977542652678
rclavicle 5.848854321747059e-16 1.0724966949485388e-14
rhumerus -41.83920568118168 13.352365609576054 -95.26854904583536
rradius 101.98369441364711
rwrist -26.04269433952496
rhand -17.82637514344093 1.0
rfingers nan
rthumb 8.492809228951696 7.640961573077371
41
root -1.1620989596234235 17.401726075086255 -5.224212196151457 2.874064674112171 1.6868371322121096 2.769219868119679
lfemur -30.77613635357584 4.693789512371348 -26.578503796585494
ltibia 49.90929877942886
lfoot -10.767594955190786 -16.741442151034654
ltoes 6.733842768204571
rfemur -1.734957485524646 -0.06732615802839259 25.421673457469822
rtibia 89.45616889457658
rfoot 18.982968891646372 -10.467455170335304
rtoes 19.825492249934445
lowerback 1.0 1.4413067520870486 -0.3593620562163161
upperback 1.137328455143978 2.236382704342697 -0.8895811614156578
thorax -8.894769116511636 0.9120225098504386 -0.44727971210785483
lowerneck -20.256407236957635 -6.136447461881203 -1.1985957001140792
upperneck 13.211154878882255 -8.325656251323524 3.296590388454357
head 7.490310560946134 -3.4409784413387765 0.5586554837186223
lclavicle 1.977914073023669e-15 -3.3259812094165023e-15
lhumerus -58.850472767721776 -5.512627328366002 94.55129408946657
lradius 110.25393809371799
lwrist 33.22152467274838
lhand -28.538592354049882 -4.839584197369577
lfingers nan
lthumb -1.9037284471156795 25.219861616564266
rclavicle 3.391048385312846e-15 -3.40543949257161e-15
rhumerus -42.562043129236415 12.676770137447908 -95.4663546776653
rradius 99.4102565266819
rwrist -25.021964093173278
rhand -18.009354246742834 1.0
rfingers nan
rthumb 8.308877787989577 6.6840069260353285
42
root -1.1744678433100064 17.329896615803598 -4.730622675597463 2.8702556391194682 1.9402741134146377 3.5323221832569045
lfemur -30.043151520311834 4.227005099634124 -27.274959197234125
ltibia 52.162511046166834
lfoot -13.21754142249644 -14.727006743205791
ltoes 9.94729940305383
rfemur -4.198835449323177 -1.2444223812567468 23.677467651232156
rtibia 93.866701457852
rfoot 18.634339822158363 -9.960631981914911
rtoes 21.588627345565403
lowerback 1.0 1.4017304759979474 -1.3020025724952817
upperback 1.1290405781635313 2.0633900028280765 -1.062731079906992
thorax -9.03570673256273 0.8649836017034538 -0.1843327427933803
lowerneck -20.407389845512274 -6.073222429335731 -1.1329185207242483
upperneck 13.049813092955725 -8.332486085224351 3.3535097884041227
head 7.461073408382091 -3.421177476104255 0.5625488794723111
lclavicle -2.8524589766651443e-14 4.01203664244169e-15
lhumerus -56.6932453964517 -6.44285878785342 94.93978353335429
lradius 110.28135048121794
lwrist 33.466398174268015
lhand -28.47068739094093 -5.19500413283953
lfingers nan
lthumb -1.8372426453655906 24.863604652847673
rclavicle -2.689296731722212e-14 4.0428586957898e-15
rhumerus -43.60318955995106 11.53110752215992 -95.57062235617737
rradius 96.87929562858699
rwrist -21.930220013681716
rhand -18.500208324691737 1.0
rfingers nan
rthumb 7.815243798959032 5.6612068222920335
43
root -1.2034475428682487 17.25257300592316 -4.250364071642922 3.1049973524240713 2.1633061923678 4.233671164304218
lfemur -29.15427809205926 3.8818109464806527 -28.161071425729638
ltibia 53.78152083584832
lfoot -15.399064157203517 -12.120156188500061
ltoes 7.455991424179114
rfemur -7.139001476951835 -2.4665469716977673 21.83291411519358
rtibia 97.99737893788894
rfoot 18.17861949009756 -9.157164681976562
rtoes 24.508420268977694
lowerback 1.0 1.3376422212845775 -2.0879699534631335
upperback 0.9246803656563134 1.865298931417572 -1.2903246645262212
thorax -9.207595364976106 0.7960666275964525 0.015745209757934878
lowerneck -20.876444041046 -5.970651430201116 -1.1964659814700112
upperneck 13.256183535413808 -8.321739814047094 3.568316178319867
head 7.6061539629417565 -3.366866048232023 0.6162473033373089
lclavicle 9.839904218277878e-15 -4.9137276785078845e-15
lhumerus -54.55869208735382 -7.391085075337565 95.0700457128228
lradius 110.18381221919843
lwrist 33.90014148162705
lhand -27.5735309063348 -5.299079862565161
lfingers nan
lthumb -0.9719104745305778 24.77258762799746
rclavicle 1.1533234477413472e-14 -4.673977668904776e-15
rhumerus -45.00121383733479 10.309856229475685 -95.94644394359125
rradius 94.27885297267582
rwrist -19.662526216470027
rhand -18.689211470075218 1.0
rfingers nan
rthumb 7.622497654996523 8.301289878162496
44
root -1.244670172903285 17.207599452495653 -3.433536179955494 3.033252776211992 1.2632757863200317 4.8254559156776375
lfemur -27.67405861453742 4.691719449132321 -28.94953978676867
ltibia 54.7537932764148
lfoot -17.413911090742722 -9.289176860025517
ltoes 5.334772791769538
rfemur -10.078346395486571 -2.0897276393014894 20.204606127025944
rtibia 101.71306504528874
rfoot 17.49135881325883 -8.416790704124988
rtoes 15.212759648501574
lowerback 1.0 1.6758855724011084 -3.42433306401153
upperback 0.9558845704756025 2.1122990392113943 -1.420699316425167
thorax -9.439533048925234 0.9676640354945858 0.4005409041930237
lowerneck -21.461840657817568 -5.867091570060097 -1.4100495489209315
upperneck 13.181371302378146 -8.275381553597898 3.7676760647542062
head 7.678900470569761 -3.317469758815093 0.6791813300012036
lclavicle -4.3684502592779026e-14 1.5897292787740558e-14
lhumerus -52.24332353316544 -8.340544631453161 95.20535743160713
lradius 110.01913068133618
lwrist 34.333212596907096
lhand -26.894470474352154 -5.580272848665009
lfingers nan
lthumb -0.3225032163039421 24.487579279519974
rclavicle -4.119691447780062e-14 1.6410235458396313e-14
rhumerus -46.23874759840731 9.399706536129278 -96.17529954688443
rradius 91.86752501568978
rwrist -17.77486799493056
rhand -19.571667860320655 1.0
rfingers nan
rthumb 6.789600680190756 9.173392587995526
45
root -1.2087038961232817 17.203381181049274 -2.9583540705712963 3.679062040310812 2.4606108327824483 5.147098705829078
lfemur -26.579976683431973 3.0106515872444524 -29.46931589807643
ltibia 55.204443469071805
lfoot -18.892715155179808 -8.399597500450763
ltoes 7.4213593608365365
rfemur -13.315896012431008 -4.434016396182541 18.38984070482236
rtibia 104.52303165026275
rfoot 16.352574391770016 -7.146981454540126
rtoes 20.22107307484515
lowerback 1.0 1.2178413674127015 -3.259741890661812
upperback 0.9050902267197238 1.5266378013944673 -1.670323980346533
thorax -8.732055050716667 0.6708759946210394 0.34185070305426596
lowerneck -21.95635149153602 -5.800015967319035 -1.3585678326449522
upperneck 12.91635843709021 -8.289185204118478 3.873484372544277
head 7.663582174279906 -3.3079067566398277 0.6890960153646346
lclavicle -3.598041879243922e-14 -9.622355239285768e-15
lhumerus -49.915285466782024 -9.44192452743799 95.07855505568158
lradius 109.95415422011094
lwrist 34.53517919077184
lhand -26.953192211839635 -5.544834497508399
lfingers nan
lthumb -0.36956999853725536 24.527127206929414
rclavicle -3.3772520589145985e-14 -9.021842423996086e-15
rhumerus -47.164442561017765 8.43478616290429 -96.20124941591627
rradius 89.6916261100501
rwrist -17.754614821151485
rhand -19.97589476712992 1.0
rfingers nan
rthumb 6.392702965871371 9.725566661385633
